<svg width="147" height="42" viewBox="0 0 147 42" fill="none" xmlns="http://www.w3.org/2000/svg">
<rect width="147" height="42" rx="21" fill="#E57A44"/>
<path d="M27.6383 27V15.8H31.8623C32.9449 15.8 33.7476 16.032 34.2703 16.496C34.7983 16.9547 35.0623 17.624 35.0623 18.504C35.0623 19.16 34.9129 19.7093 34.6143 20.152C34.3209 20.5893 33.8783 20.9093 33.2863 21.112V20.728C34.1823 20.92 34.8516 21.272 35.2943 21.784C35.7369 22.296 35.9583 22.9733 35.9583 23.816C35.9583 24.824 35.6329 25.608 34.9823 26.168C34.3316 26.7227 33.4409 27 32.3103 27H27.6383ZM29.6863 25.176H32.0063C32.5663 25.176 33.0116 25.0613 33.3423 24.832C33.6783 24.6027 33.8463 24.1893 33.8463 23.592C33.8463 22.984 33.6703 22.5707 33.3183 22.352C32.9663 22.1333 32.5289 22.024 32.0063 22.024H29.6863V25.176ZM29.6863 20.2H31.5583C32.0543 20.2 32.4249 20.0987 32.6703 19.896C32.9209 19.6933 33.0463 19.368 33.0463 18.92C33.0463 18.456 32.9209 18.1253 32.6703 17.928C32.4249 17.7253 32.0543 17.624 31.5583 17.624H29.6863V20.2ZM40.5681 27.16C39.7361 27.16 39.0721 26.9947 38.5761 26.664C38.0801 26.3333 37.7228 25.88 37.5041 25.304C37.2855 24.7227 37.1761 24.056 37.1761 23.304V19H39.1601V23.304C39.1601 24.0453 39.2828 24.5973 39.5281 24.96C39.7788 25.3173 40.1841 25.496 40.7441 25.496C41.1921 25.496 41.5628 25.3893 41.8561 25.176C42.1548 24.9627 42.4028 24.664 42.6001 24.28L42.2481 25.288V19H44.2321V27H42.3761L42.2801 25.608L42.7121 26.168C42.5201 26.4133 42.2161 26.64 41.8001 26.848C41.3895 27.056 40.9788 27.16 40.5681 27.16ZM48.3563 27.16C47.8283 27.16 47.3509 27.1093 46.9243 27.008C46.5029 26.9067 46.0789 26.76 45.6523 26.568L45.8283 24.872C46.2389 25.112 46.6416 25.3067 47.0363 25.456C47.4363 25.6 47.8549 25.672 48.2923 25.672C48.6869 25.672 48.9883 25.608 49.1962 25.48C49.4043 25.352 49.5083 25.1493 49.5083 24.872C49.5083 24.664 49.4523 24.4933 49.3403 24.36C49.2336 24.2267 49.0709 24.1067 48.8523 24C48.6336 23.8933 48.3616 23.7787 48.0363 23.656C47.5456 23.4747 47.1269 23.2773 46.7803 23.064C46.4389 22.8507 46.1776 22.5947 45.9963 22.296C45.8203 21.992 45.7323 21.6187 45.7323 21.176C45.7323 20.7173 45.8523 20.312 46.0923 19.96C46.3323 19.608 46.6736 19.3333 47.1163 19.136C47.5589 18.9387 48.0843 18.84 48.6923 18.84C49.1989 18.84 49.6523 18.896 50.0523 19.008C50.4576 19.12 50.8309 19.272 51.1723 19.464L50.9963 21.16C50.6389 20.9093 50.2789 20.704 49.9163 20.544C49.5536 20.3787 49.1563 20.296 48.7243 20.296C48.3829 20.296 48.1189 20.3653 47.9323 20.504C47.7456 20.6427 47.6523 20.84 47.6523 21.096C47.6523 21.4053 47.7829 21.6373 48.0443 21.792C48.3056 21.9467 48.7243 22.136 49.3003 22.36C49.6736 22.504 49.9963 22.6533 50.2683 22.808C50.5456 22.9627 50.7749 23.1333 50.9563 23.32C51.1376 23.5067 51.2709 23.72 51.3563 23.96C51.4469 24.1947 51.4923 24.4667 51.4923 24.776C51.4923 25.2827 51.3696 25.7147 51.1243 26.072C50.8843 26.424 50.5296 26.6933 50.0603 26.88C49.5963 27.0667 49.0283 27.16 48.3563 27.16ZM56.5619 27.16C55.6445 27.16 54.8739 26.9733 54.2499 26.6C53.6312 26.2213 53.1619 25.72 52.8419 25.096C52.5272 24.4667 52.3699 23.7733 52.3699 23.016C52.3699 22.2533 52.5272 21.5573 52.8419 20.928C53.1565 20.2933 53.6285 19.7867 54.2579 19.408C54.8872 19.0293 55.6765 18.84 56.6259 18.84C57.0739 18.84 57.4792 18.8907 57.8419 18.992C58.2045 19.088 58.5139 19.208 58.7699 19.352L58.6099 20.952C58.3645 20.824 58.0872 20.7173 57.7779 20.632C57.4739 20.5467 57.1539 20.504 56.8179 20.504C56.0499 20.504 55.4552 20.736 55.0339 21.2C54.6125 21.664 54.4019 22.2693 54.4019 23.016C54.4019 23.7253 54.6179 24.3227 55.0499 24.808C55.4819 25.288 56.0659 25.528 56.8019 25.528C57.1165 25.528 57.4259 25.4827 57.7299 25.392C58.0392 25.296 58.3379 25.1653 58.6259 25L58.8019 26.68C58.5245 26.824 58.1885 26.9387 57.7939 27.024C57.4045 27.1147 56.9939 27.16 56.5619 27.16ZM63.7006 27.16C62.8313 27.16 62.09 26.9707 61.4766 26.592C60.8633 26.2133 60.394 25.7093 60.0686 25.08C59.7486 24.4507 59.5886 23.7627 59.5886 23.016C59.5886 22.264 59.7486 21.5707 60.0686 20.936C60.394 20.3013 60.8633 19.7947 61.4766 19.416C62.09 19.032 62.8313 18.84 63.7006 18.84C64.57 18.84 65.3113 19.032 65.9246 19.416C66.538 19.7947 67.0046 20.3013 67.3246 20.936C67.65 21.5707 67.8126 22.264 67.8126 23.016C67.8126 23.7627 67.65 24.4507 67.3246 25.08C67.0046 25.7093 66.538 26.2133 65.9246 26.592C65.3113 26.9707 64.57 27.16 63.7006 27.16ZM63.7006 25.528C64.3673 25.528 64.8793 25.296 65.2366 24.832C65.5993 24.3627 65.7806 23.7573 65.7806 23.016C65.7806 22.264 65.5993 21.6533 65.2366 21.184C64.8793 20.7093 64.3673 20.472 63.7006 20.472C63.0393 20.472 62.5273 20.7093 62.1646 21.184C61.802 21.6533 61.6206 22.264 61.6206 23.016C61.6206 23.7573 61.802 24.3627 62.1646 24.832C62.5273 25.296 63.0393 25.528 63.7006 25.528ZM75.3954 27.16C74.894 27.16 74.486 27.0587 74.1714 26.856C73.8567 26.648 73.6247 26.384 73.4754 26.064C73.326 25.744 73.2514 25.4107 73.2514 25.064V20.632H72.1154L72.2914 19H73.2514V17.24L75.2354 17.032V19H76.9954V20.632H75.2354V24.248C75.2354 24.6533 75.2594 24.9467 75.3074 25.128C75.3554 25.304 75.4647 25.416 75.6354 25.464C75.806 25.5067 76.078 25.528 76.4514 25.528H76.9954L76.8194 27.16H75.3954ZM78.2874 27V19H80.1434L80.1914 19.848C80.394 19.624 80.6794 19.4 81.0474 19.176C81.4154 18.952 81.818 18.84 82.2554 18.84C82.3834 18.84 82.5007 18.8507 82.6074 18.872L82.4634 20.824C82.346 20.792 82.2287 20.7707 82.1114 20.76C81.9994 20.7493 81.8874 20.744 81.7754 20.744C81.4394 20.744 81.1327 20.8213 80.8554 20.976C80.578 21.1307 80.3834 21.32 80.2714 21.544V27H78.2874ZM85.2029 27.16C84.7762 27.16 84.3869 27.0667 84.0349 26.88C83.6829 26.688 83.4029 26.4133 83.1949 26.056C82.9869 25.6987 82.8829 25.2667 82.8829 24.76C82.8829 24.3067 82.9869 23.92 83.1949 23.6C83.4082 23.2747 83.6855 23.0053 84.0269 22.792C84.3735 22.5733 84.7469 22.4027 85.1469 22.28C85.5522 22.152 85.9495 22.0587 86.3389 22C86.7335 21.9413 87.0802 21.9067 87.3789 21.896C87.3575 21.4373 87.2402 21.104 87.0269 20.896C86.8135 20.688 86.4509 20.584 85.9389 20.584C85.5815 20.584 85.2322 20.6347 84.8909 20.736C84.5549 20.832 84.1735 20.984 83.7469 21.192L83.5709 19.576C84.0509 19.3413 84.5309 19.1653 85.0109 19.048C85.4962 18.9307 85.9869 18.872 86.4829 18.872C87.0802 18.872 87.5949 18.9787 88.0269 19.192C88.4589 19.4053 88.7922 19.7493 89.0269 20.224C89.2615 20.6933 89.3789 21.3147 89.3789 22.088V24.248C89.3789 24.648 89.3975 24.9387 89.4349 25.12C89.4722 25.296 89.5415 25.408 89.6429 25.456C89.7442 25.504 89.8909 25.528 90.0829 25.528H90.3389L90.1629 27.16H89.4429C89.1442 27.16 88.8775 27.12 88.6429 27.04C88.4135 26.9653 88.2162 26.8587 88.0509 26.72C87.8855 26.5813 87.7522 26.4187 87.6509 26.232C87.3895 26.5253 87.0349 26.7547 86.5869 26.92C86.1442 27.08 85.6829 27.16 85.2029 27.16ZM86.0349 25.64C86.2109 25.64 86.4295 25.5947 86.6909 25.504C86.9522 25.408 87.1869 25.2613 87.3949 25.064V23.24C87.0215 23.256 86.6482 23.3173 86.2749 23.424C85.9015 23.5307 85.5895 23.688 85.3389 23.896C85.0882 24.104 84.9629 24.3653 84.9629 24.68C84.9629 25.0053 85.0482 25.248 85.2189 25.408C85.3895 25.5627 85.6615 25.64 86.0349 25.64ZM95.6036 27.16C94.9956 27.16 94.4703 27.0613 94.0276 26.864C93.585 26.6667 93.1716 26.3973 92.7876 26.056L93.3796 25.64L93.2836 27H91.4276V15H93.4116V20.328L92.9316 20.024C93.2836 19.6613 93.6756 19.3787 94.1076 19.176C94.545 18.9733 95.0436 18.872 95.6036 18.872C96.3876 18.872 97.0463 19.0613 97.5796 19.44C98.113 19.8187 98.5156 20.3227 98.7876 20.952C99.065 21.5813 99.2036 22.2693 99.2036 23.016C99.2036 23.7627 99.065 24.4507 98.7876 25.08C98.5156 25.7093 98.113 26.2133 97.5796 26.592C97.0463 26.9707 96.3876 27.16 95.6036 27.16ZM95.3156 25.528C95.7103 25.528 96.0463 25.4213 96.3236 25.208C96.601 24.9947 96.8116 24.7013 96.9556 24.328C97.0996 23.9493 97.1716 23.512 97.1716 23.016C97.1716 22.52 97.0996 22.0853 96.9556 21.712C96.8116 21.3333 96.601 21.0373 96.3236 20.824C96.0463 20.6107 95.7103 20.504 95.3156 20.504C94.8516 20.504 94.473 20.6107 94.1796 20.824C93.8863 21.0373 93.6676 21.3333 93.5236 21.712C93.385 22.0853 93.3156 22.52 93.3156 23.016C93.3156 23.512 93.385 23.9493 93.5236 24.328C93.6676 24.7013 93.8863 24.9947 94.1796 25.208C94.473 25.4213 94.8516 25.528 95.3156 25.528ZM102.312 27.16C101.886 27.16 101.496 27.0667 101.144 26.88C100.792 26.688 100.512 26.4133 100.304 26.056C100.096 25.6987 99.9923 25.2667 99.9923 24.76C99.9923 24.3067 100.096 23.92 100.304 23.6C100.518 23.2747 100.795 23.0053 101.136 22.792C101.483 22.5733 101.856 22.4027 102.256 22.28C102.662 22.152 103.059 22.0587 103.448 22C103.843 21.9413 104.19 21.9067 104.488 21.896C104.467 21.4373 104.35 21.104 104.136 20.896C103.923 20.688 103.56 20.584 103.048 20.584C102.691 20.584 102.342 20.6347 102 20.736C101.664 20.832 101.283 20.984 100.856 21.192L100.68 19.576C101.16 19.3413 101.64 19.1653 102.12 19.048C102.606 18.9307 103.096 18.872 103.592 18.872C104.19 18.872 104.704 18.9787 105.136 19.192C105.568 19.4053 105.902 19.7493 106.136 20.224C106.371 20.6933 106.488 21.3147 106.488 22.088V24.248C106.488 24.648 106.507 24.9387 106.544 25.12C106.582 25.296 106.651 25.408 106.752 25.456C106.854 25.504 107 25.528 107.192 25.528H107.448L107.272 27.16H106.552C106.254 27.16 105.987 27.12 105.752 27.04C105.523 26.9653 105.326 26.8587 105.16 26.72C104.995 26.5813 104.862 26.4187 104.76 26.232C104.499 26.5253 104.144 26.7547 103.696 26.92C103.254 27.08 102.792 27.16 102.312 27.16ZM103.144 25.64C103.32 25.64 103.539 25.5947 103.8 25.504C104.062 25.408 104.296 25.2613 104.504 25.064V23.24C104.131 23.256 103.758 23.3173 103.384 23.424C103.011 23.5307 102.699 23.688 102.448 23.896C102.198 24.104 102.072 24.3653 102.072 24.68C102.072 25.0053 102.158 25.248 102.328 25.408C102.499 25.5627 102.771 25.64 103.144 25.64ZM107.769 30.872L107.593 29.24C107.844 29.24 108.038 29.2 108.177 29.12C108.316 29.0453 108.412 28.9147 108.465 28.728C108.524 28.5413 108.553 28.2853 108.553 27.96V19H110.537V28.776C110.537 29.336 110.454 29.7653 110.289 30.064C110.124 30.368 109.881 30.5787 109.561 30.696C109.241 30.8133 108.852 30.872 108.393 30.872H107.769ZM108.553 17.784V15.8H110.537V17.784H108.553ZM116.029 27.16C115.159 27.16 114.418 26.9707 113.805 26.592C113.191 26.2133 112.722 25.7093 112.397 25.08C112.077 24.4507 111.917 23.7627 111.917 23.016C111.917 22.264 112.077 21.5707 112.397 20.936C112.722 20.3013 113.191 19.7947 113.805 19.416C114.418 19.032 115.159 18.84 116.029 18.84C116.898 18.84 117.639 19.032 118.253 19.416C118.866 19.7947 119.333 20.3013 119.653 20.936C119.978 21.5707 120.141 22.264 120.141 23.016C120.141 23.7627 119.978 24.4507 119.653 25.08C119.333 25.7093 118.866 26.2133 118.253 26.592C117.639 26.9707 116.898 27.16 116.029 27.16ZM116.029 25.528C116.695 25.528 117.207 25.296 117.565 24.832C117.927 24.3627 118.109 23.7573 118.109 23.016C118.109 22.264 117.927 21.6533 117.565 21.184C117.207 20.7093 116.695 20.472 116.029 20.472C115.367 20.472 114.855 20.7093 114.493 21.184C114.13 21.6533 113.949 22.264 113.949 23.016C113.949 23.7573 114.13 24.3627 114.493 24.832C114.855 25.296 115.367 25.528 116.029 25.528Z" fill="white"/>
</svg>
