<svg width="301" height="155" xmlns="http://www.w3.org/2000/svg" xmlns:xlink="http://www.w3.org/1999/xlink" xml:space="preserve" overflow="hidden"><defs><clipPath id="clip0"><rect x="2030" y="1160" width="301" height="155"/></clipPath><clipPath id="clip1"><rect x="2069" y="1160" width="262" height="155"/></clipPath><clipPath id="clip2"><rect x="2069" y="1160" width="262" height="155"/></clipPath><clipPath id="clip3"><rect x="2069" y="1160" width="262" height="155"/></clipPath><clipPath id="clip4"><rect x="2029" y="1195" width="232" height="85"/></clipPath><clipPath id="clip5"><rect x="2029" y="1195" width="232" height="85"/></clipPath><clipPath id="clip6"><rect x="2029" y="1195" width="232" height="85"/></clipPath></defs><g clip-path="url(#clip0)" transform="translate(-2030 -1160)"><g clip-path="url(#clip1)"><g clip-path="url(#clip2)"><g clip-path="url(#clip3)"><path d="M251.444 0C257.151-1.52964e-15 261.777 4.62638 261.777 10.3333L261.777 144.666C261.777 150.373 257.151 155 251.444 155L10.3333 155C4.62638 155-1.52964e-15 150.373 0 144.666L0 10.3333C-3.05927e-15 4.62638 4.62638-1.52964e-15 10.3333 0Z" fill="#E57A44" transform="matrix(1.00085 0 0 1 2069 1160)"/></g></g></g><g clip-path="url(#clip4)"><g clip-path="url(#clip5)"><g clip-path="url(#clip6)"><path d="M226.802 44.8353C228.813 42.8243 228.813 39.5638 226.802 37.5529L194.032 4.78332C192.021 2.7724 188.761 2.7724 186.75 4.78332 184.739 6.79424 184.739 10.0546 186.75 12.0655L215.879 41.1941 186.75 70.3228C184.739 72.3337 184.739 75.5939 186.75 77.6049 188.761 79.6158 192.021 79.6158 194.032 77.6049L226.802 44.8353ZM0 46.3433 223.161 46.3433 223.161 36.0448 0 36.0448 0 46.3433Z" transform="matrix(1 0 0 1.00743 2030 1196)"/></g></g></g></g></svg>