<svg width="40" height="39" viewBox="0 0 40 39" fill="none" xmlns="http://www.w3.org/2000/svg">
<path d="M17.1468 2.78115C18.0449 0.0172229 21.9551 0.0172195 22.8532 2.78115L25.3883 10.5836C25.79 11.8197 26.9418 12.6565 28.2415 12.6565H36.4455C39.3516 12.6565 40.56 16.3754 38.2088 18.0836L31.5717 22.9058C30.5202 23.6697 30.0802 25.0238 30.4819 26.2599L33.017 34.0623C33.9151 36.8262 30.7516 39.1246 28.4005 37.4164L21.7634 32.5942C20.7119 31.8303 19.2881 31.8303 18.2366 32.5942L11.5995 37.4164C9.24835 39.1246 6.08491 36.8262 6.98297 34.0623L9.51813 26.2599C9.91976 25.0238 9.47978 23.6697 8.42832 22.9058L1.79117 18.0836C-0.559969 16.3754 0.648353 12.6565 3.55452 12.6565H11.7585C13.0582 12.6565 14.21 11.8197 14.6117 10.5836L17.1468 2.78115Z" fill="#E57A44"/>
</svg>
